<svg width="130" height="36" viewBox="0 0 130 36" fill="none" xmlns="http://www.w3.org/2000/svg">
<g clip-path="url(#clip0_693_980)">
<path d="M17.7428 35.4856C27.5418 35.4856 35.4856 27.5418 35.4856 17.7428C35.4856 7.94371 27.5418 0 17.7428 0C7.94371 0 0 7.94371 0 17.7428C0 27.5418 7.94371 35.4856 17.7428 35.4856Z" fill="#2A2A2A"/>
<path d="M14.6575 18.7811C14.6575 18.3139 14.2788 17.9352 13.8117 17.9352V17.9352C13.3445 17.9352 12.9658 17.5565 12.9658 17.0894V15.7006C12.9658 15.2335 13.3445 14.8548 13.8117 14.8548V14.8548C14.2788 14.8548 14.6575 14.4761 14.6575 14.0089V13.3398C14.6575 11.7071 15.1709 10.4446 16.1977 9.55243C17.2414 8.64345 18.588 8.18896 20.2376 8.18896C20.7611 8.18896 21.2469 8.2374 21.6951 8.33426C22.2987 8.46476 22.6616 9.04231 22.6616 9.65994V10.5339C22.6616 11.2894 21.8264 11.8249 21.0709 11.8249V11.8249C20.3976 11.8249 19.901 11.9764 19.5811 12.2794C19.2613 12.5824 19.1014 13.0621 19.1014 13.7186V13.7186C19.1014 14.3461 19.6101 14.8548 20.2376 14.8548H20.5027C21.2767 14.8548 21.9041 15.4822 21.9041 16.2561V16.5339C21.9041 17.3078 21.2767 17.9352 20.5027 17.9352V17.9352C19.7288 17.9352 19.1014 18.5626 19.1014 19.3365V24.7525C19.1014 25.9797 18.1066 26.9745 16.8795 26.9745V26.9745C15.6523 26.9745 14.6575 25.9797 14.6575 24.7525V18.7811Z" fill="white"/>
<path d="M41.5254 15.4164C41.5254 14.7821 42.0396 14.2679 42.6739 14.2679H49.6577C50.292 14.2679 50.8062 14.7821 50.8062 15.4164V15.4164C50.8062 16.0507 50.292 16.5649 49.6577 16.5649H42.6739C42.0396 16.5649 41.5254 16.0507 41.5254 15.4164V15.4164ZM48.5788 9.41861H49.7505C50.4233 9.41861 50.9686 9.96398 50.9686 10.6367V10.6367C50.9686 11.3095 50.4233 11.8548 49.7505 11.8548H49.2981C48.8494 11.8394 48.4628 11.8858 48.138 11.994C47.8132 12.1023 47.5658 12.3034 47.3955 12.5973C47.2253 12.8757 47.1403 13.2779 47.1403 13.8038V24.0823C47.1403 24.9153 46.4651 25.5905 45.6322 25.5905V25.5905C44.7992 25.5905 44.124 24.9153 44.124 24.0823V13.4326C44.124 12.5045 44.2943 11.7466 44.6345 11.1588C44.9747 10.5555 45.4776 10.1147 46.1426 9.83625C46.8076 9.55783 47.6197 9.41861 48.5788 9.41861ZM59.332 25.8689C57.8778 25.8689 56.5941 25.6369 55.4804 25.1728C54.3821 24.7088 53.5236 24.0359 52.905 23.1543C52.286 22.2571 51.9769 21.1589 51.9769 19.8596C51.9769 18.5602 52.286 17.462 52.905 16.5649C53.5236 15.6522 54.3821 14.9639 55.4804 14.4999C56.5941 14.0358 57.8778 13.8038 59.332 13.8038C60.7859 13.8038 62.0541 14.0358 63.1371 14.4999C64.2351 14.9639 65.0936 15.6522 65.7126 16.5649C66.3312 17.462 66.6406 18.5602 66.6406 19.8596C66.6406 21.1589 66.3312 22.2571 65.7126 23.1543C65.0936 24.0359 64.2351 24.7088 63.1371 25.1728C62.0541 25.6369 60.7859 25.8689 59.332 25.8689ZM59.332 23.5487C60.1362 23.5487 60.8555 23.4095 61.4898 23.1311C62.1394 22.8372 62.6499 22.4195 63.0211 21.8781C63.3923 21.3213 63.578 20.6484 63.578 19.8596C63.578 19.0707 63.3923 18.3978 63.0211 17.841C62.6499 17.2687 62.1469 16.8355 61.513 16.5417C60.8787 16.2478 60.1516 16.1008 59.332 16.1008C58.5274 16.1008 57.8006 16.2478 57.151 16.5417C56.5013 16.8355 55.983 17.2609 55.5964 17.8178C55.2252 18.3746 55.0396 19.0552 55.0396 19.8596C55.0396 20.6484 55.2252 21.3213 55.5964 21.8781C55.9677 22.4195 56.4781 22.8372 57.1278 23.1311C57.7774 23.4095 58.5121 23.5487 59.332 23.5487ZM68.8704 15.5672C68.8704 14.7343 69.5456 14.059 70.3786 14.059V14.059C71.2115 14.059 71.8867 14.7343 71.8867 15.5672V24.0823C71.8867 24.9153 71.2115 25.5905 70.3786 25.5905V25.5905C69.5456 25.5905 68.8704 24.9153 68.8704 24.0823V15.5672ZM77.2464 13.8038C77.9578 13.8038 78.6153 13.8966 79.2186 14.0822C79.8218 14.2679 80.3476 14.554 80.7963 14.9407C81.2447 15.3274 81.5927 15.8224 81.8404 16.4256C82.0878 17.0134 82.2116 17.7172 82.2116 18.537V24.0823C82.2116 24.9153 81.5364 25.5905 80.7035 25.5905V25.5905C79.8706 25.5905 79.1954 24.9153 79.1954 24.0823V19.0707C79.1954 18.0962 78.9555 17.3847 78.4761 16.9361C78.0121 16.4721 77.2464 16.24 76.1791 16.24C75.3745 16.24 74.6478 16.3947 73.9981 16.7041C73.3484 17.0134 72.8223 17.4079 72.4204 17.8874C72.0181 18.3514 71.786 18.8387 71.7243 19.3491V19.3491C71.7088 18.5615 71.712 17.7545 72.0205 17.0297C72.0837 16.8812 72.1551 16.734 72.2347 16.5881C72.5132 16.0776 72.8844 15.6136 73.3484 15.1959C73.8278 14.7628 74.3925 14.4225 75.0422 14.175C75.6918 13.9276 76.4265 13.8038 77.2464 13.8038ZM84.1456 15.2307C84.1456 14.5836 84.6702 14.059 85.3173 14.059H91.9299C92.577 14.059 93.1016 14.5836 93.1016 15.2307V15.2307C93.1016 15.8779 92.577 16.4024 91.9299 16.4024H85.3173C84.6702 16.4024 84.1456 15.8779 84.1456 15.2307V15.2307ZM87.1155 12.4117C87.1155 11.5788 87.7907 10.9035 88.6236 10.9035V10.9035C89.4565 10.9035 90.1317 11.5788 90.1317 12.4117V24.0823C90.1317 24.9153 89.4565 25.5905 88.6236 25.5905V25.5905C87.7907 25.5905 87.1155 24.9153 87.1155 24.0823V12.4117ZM97.1528 9.00098C97.8832 9.00098 98.4753 9.59309 98.4753 10.3235V10.3235C98.4753 11.0539 97.8832 11.646 97.1528 11.646H96.2943C95.5639 11.646 94.9718 11.0539 94.9718 10.3235V10.3235C94.9718 9.59309 95.5639 9.00098 96.2943 9.00098H97.1528ZM95.2038 15.5672C95.2038 14.7343 95.879 14.059 96.7119 14.059V14.059C97.5449 14.059 98.2201 14.7342 98.2201 15.5672V24.0823C98.2201 24.9153 97.5449 25.5905 96.7119 25.5905V25.5905C95.879 25.5905 95.2038 24.9153 95.2038 24.0823V15.5672ZM100.414 15.4164C100.414 14.7821 100.929 14.2679 101.563 14.2679H108.547C109.181 14.2679 109.695 14.7821 109.695 15.4164V15.4164C109.695 16.0507 109.181 16.5649 108.547 16.5649H101.563C100.929 16.5649 100.414 16.0507 100.414 15.4164V15.4164ZM107.468 9.41861H108.64C109.312 9.41861 109.858 9.96398 109.858 10.6367V10.6367C109.858 11.3095 109.312 11.8548 108.64 11.8548H108.187C107.738 11.8394 107.352 11.8858 107.027 11.994C106.702 12.1023 106.455 12.3034 106.284 12.5973C106.114 12.8757 106.029 13.2779 106.029 13.8038V24.0823C106.029 24.9153 105.354 25.5905 104.521 25.5905V25.5905C103.688 25.5905 103.013 24.9153 103.013 24.0823V13.4326C103.013 12.5045 103.183 11.7466 103.523 11.1588C103.864 10.5555 104.367 10.1147 105.032 9.83625C105.697 9.55783 106.509 9.41861 107.468 9.41861ZM111.532 16.1099C111.072 15.1616 111.763 14.059 112.817 14.059V14.059C113.378 14.059 113.888 14.3882 114.118 14.9002L118.045 23.6129C118.392 24.3811 117.923 25.2701 117.093 25.4183V25.4183C116.523 25.5201 115.954 25.2304 115.702 24.7091L111.532 16.1099ZM122.34 14.059C123.402 14.059 124.094 15.1734 123.624 16.1253L117.038 29.4694C116.808 29.9357 116.333 30.2309 115.814 30.2309V30.2309C114.781 30.2309 114.122 29.1291 114.61 28.219L116.941 23.8735L121.037 14.8968C121.27 14.3865 121.779 14.059 122.34 14.059V14.059Z" fill="white"/>
<path d="M24.5674 18.0839C25.5096 18.0839 26.2734 17.3201 26.2734 16.3779C26.2734 15.4357 25.5096 14.6719 24.5674 14.6719C23.6251 14.6719 22.8613 15.4357 22.8613 16.3779C22.8613 17.3201 23.6251 18.0839 24.5674 18.0839Z" fill="#097C87"/>
<path d="M97.0733 12.6247C98.2982 12.6247 99.2912 11.6317 99.2912 10.4068C99.2912 9.18193 98.2982 8.18896 97.0733 8.18896C95.8484 8.18896 94.8555 9.18193 94.8555 10.4068C94.8555 11.6317 95.8484 12.6247 97.0733 12.6247Z" fill="#097C87"/>
</g>
<defs>
<clipPath id="clip0_693_980">
<rect width="130" height="35.4856" fill="white"/>
</clipPath>
</defs>
</svg>
