<svg width="35" height="35" viewBox="0 0 35 35" fill="none" xmlns="http://www.w3.org/2000/svg">
<rect width="35" height="35" fill="#2A2A2A"/>
<path d="M13.6917 19.5921C13.6917 19.1249 13.313 18.7462 12.8459 18.7462V18.7462C12.3787 18.7462 12 18.3675 12 17.9004V16.5117C12 16.0445 12.3787 15.6658 12.8459 15.6658V15.6658C13.313 15.6658 13.6917 15.2871 13.6917 14.82V14.1509C13.6917 12.5181 14.2051 11.2556 15.2319 10.3635C16.2756 9.45449 17.6222 9 19.2718 9C19.7953 9 20.2811 9.04843 20.7292 9.1453C21.3329 9.27579 21.6957 9.85334 21.6957 10.471V11.345C21.6957 12.1005 20.8605 12.6359 20.105 12.6359V12.6359C19.4317 12.6359 18.9352 12.7874 18.6153 13.0904C18.2955 13.3934 18.1356 13.8731 18.1356 14.5296V14.5296C18.1356 15.1571 18.6443 15.6658 19.2718 15.6658H19.5369C20.3109 15.6658 20.9383 16.2932 20.9383 17.0672V17.3449C20.9383 18.1188 20.3109 18.7462 19.5369 18.7462V18.7462C18.763 18.7462 18.1356 19.3736 18.1356 20.1476V25.5636C18.1356 26.7907 17.1408 27.7855 15.9136 27.7855V27.7855C14.6865 27.7855 13.6917 26.7907 13.6917 25.5636V19.5921Z" fill="white"/>
<path d="M23.5674 19.0839C24.5096 19.0839 25.2734 18.3201 25.2734 17.3779C25.2734 16.4357 24.5096 15.6719 23.5674 15.6719C22.6251 15.6719 21.8613 16.4357 21.8613 17.3779C21.8613 18.3201 22.6251 19.0839 23.5674 19.0839Z" fill="#097C87"/>
</svg>
