<svg width="36" height="36" viewBox="0 0 36 36" fill="none" xmlns="http://www.w3.org/2000/svg">
<path d="M17.7428 35.4856C27.5418 35.4856 35.4856 27.5418 35.4856 17.7428C35.4856 7.94371 27.5418 0 17.7428 0C7.94371 0 0 7.94371 0 17.7428C0 27.5418 7.94371 35.4856 17.7428 35.4856Z" fill="#2A2A2A"/>
<path d="M14.6917 19.5921C14.6917 19.1249 14.313 18.7462 13.8459 18.7462V18.7462C13.3787 18.7462 13 18.3675 13 17.9004V16.5117C13 16.0445 13.3787 15.6658 13.8459 15.6658V15.6658C14.313 15.6658 14.6917 15.2871 14.6917 14.82V14.1509C14.6917 12.5181 15.2051 11.2556 16.2319 10.3635C17.2756 9.45449 18.6222 9 20.2718 9C20.7953 9 21.2811 9.04843 21.7292 9.1453C22.3329 9.27579 22.6957 9.85334 22.6957 10.471V11.345C22.6957 12.1005 21.8605 12.6359 21.105 12.6359V12.6359C20.4317 12.6359 19.9352 12.7874 19.6153 13.0904C19.2955 13.3934 19.1356 13.8731 19.1356 14.5296V14.5296C19.1356 15.1571 19.6443 15.6658 20.2718 15.6658H20.5369C21.3109 15.6658 21.9383 16.2932 21.9383 17.0672V17.3449C21.9383 18.1188 21.3109 18.7462 20.5369 18.7462V18.7462C19.763 18.7462 19.1356 19.3736 19.1356 20.1476V25.5636C19.1356 26.7907 18.1408 27.7855 16.9136 27.7855V27.7855C15.6865 27.7855 14.6917 26.7907 14.6917 25.5636V19.5921Z" fill="white"/>
<path d="M24.5674 19.0839C25.5096 19.0839 26.2734 18.3201 26.2734 17.3779C26.2734 16.4357 25.5096 15.6719 24.5674 15.6719C23.6251 15.6719 22.8613 16.4357 22.8613 17.3779C22.8613 18.3201 23.6251 19.0839 24.5674 19.0839Z" fill="#097C87"/>
</svg>
