<svg width="16" height="16" viewBox="0 0 16 16" fill="none" xmlns="http://www.w3.org/2000/svg">
<path d="M15.1289 13.4761L11.7099 15.3549C11.7041 15.3582 11.6979 15.3615 11.6917 15.3648C11.2963 15.5732 10.8501 15.6771 10.4048 15.6771C9.90931 15.6771 9.41442 15.5485 8.99054 15.2939C8.98372 15.2898 8.9769 15.2857 8.97008 15.2813L6.33409 13.6223C5.66741 13.2166 5.27919 12.5478 5.29532 11.8306C5.31113 11.1087 5.73315 10.4503 6.42432 10.0685C6.43362 10.0633 6.44354 10.0583 6.45347 10.0534L12.6179 6.86741C12.8452 6.73656 12.8842 6.54332 12.8867 6.43886C12.8898 6.33302 12.8607 6.13565 12.6346 5.99463L5.10059 1.46306L7.32944 0.322266L13.9407 4.29911C13.9441 4.30103 13.9472 4.30296 13.95 4.30488C14.758 4.80106 15.2266 5.61748 15.2024 6.48916C15.1785 7.36084 14.6656 8.15582 13.8312 8.61682C13.8219 8.62204 13.812 8.62754 13.8021 8.63249L7.64076 11.8165C7.62805 11.8248 7.61193 11.8394 7.61131 11.8704C7.61038 11.9089 7.63363 11.9229 7.64603 11.9306C7.65348 11.9347 7.65968 11.9389 7.6665 11.9433L10.2963 13.5981C10.3586 13.633 10.4383 13.6349 10.5025 13.6031L13.9084 11.7313C14.4523 11.4325 15.1661 11.5812 15.5032 12.0628C15.8402 12.545 15.6725 13.1778 15.1292 13.4766L15.1289 13.4761Z" fill="white"/>
<path d="M6.88109 5.56745L2.87361 3.44942L2.70678 3.36118C2.30709 3.15006 1.80972 3.14704 1.40693 3.35321C0.735913 3.69682 0.322266 4.33154 0.322266 5.01849V12.9252C0.322266 13.5231 0.682579 14.0756 1.26708 14.3738L2.87361 15.1936V6.14582C2.87361 5.8745 3.20725 5.70655 3.4702 5.84537L5.84914 7.10244C6.011 7.18766 6.18837 7.22834 6.36418 7.22834C6.70744 7.22834 7.04233 7.07275 7.23117 6.79209C7.51613 6.36821 7.35954 5.82035 6.88109 5.56745Z" fill="white"/>
</svg>
